<svg xmlns="http://www.w3.org/2000/svg" xmlns:xlink="http://www.w3.org/1999/xlink" fill="none" version="1.1" width="120" height="120" viewBox="0 0 120 120"><defs><clipPath id="master_svg0_1959_01838"><rect x="0" y="0" width="120" height="120" rx="0"/></clipPath></defs><g clip-path="url(#master_svg0_1959_01838)"><g><path d="M23.20703,47.3769C16.26433,54.3195,16.26433,65.57589999999999,23.20703,72.5184L53.3769,102.6883C60.3195,109.6313,71.5758,109.6313,78.5185,102.6883L101.186,80.021C103.015,78.1917,103.015,75.2257,101.186,73.3964C91.5598,63.7704,76.2921,63.2246,66.02629999999999,71.759L54.2149,59.9476L66.02629999999999,48.1363C76.2921,56.6707,91.5598,56.125,101.186,46.4989C103.015,44.6695,103.015,41.7036,101.186,39.874300000000005L78.5185,17.20695C71.5758,10.26435,60.3195,10.26435,53.3769,17.20695L23.20703,47.3769ZM77.68039999999999,26.4255L73.4902,22.235300000000002C69.3246,18.06975,62.5708,18.06975,58.4052,22.235300000000002L37.453900000000004,43.1866L49.1866,54.9193L77.68039999999999,26.4255ZM82.7087,31.4538L71.0844,43.0781C77.9109,48.3622,87.5066,48.3622,94.333,43.0781L82.7087,31.4538ZM60.9194,76.7087L49.1866,88.4415L28.235300000000002,67.4902C24.06973,63.3245,24.06973,56.5707,28.235300000000002,52.4051L32.4256,48.2149L60.9194,76.7087ZM58.4052,97.6603L54.2149,93.4697L69.25999999999999,78.4248C76.1062,71.5786,86.8731,71.0426,94.333,76.8171L73.4902,97.6603C69.3246,101.8253,62.5708,101.8253,58.4052,97.6603Z" fill-rule="evenodd" fill="#5B8DEF" fill-opacity="1"/></g></g></svg>