<svg xmlns="http://www.w3.org/2000/svg" xmlns:xlink="http://www.w3.org/1999/xlink" fill="none" version="1.1" width="102" height="102" viewBox="0 0 102 102"><defs><clipPath id="master_svg0_1959_01838"><rect x="0" y="0" width="102" height="102" rx="0"/></clipPath></defs><g clip-path="url(#master_svg0_1959_01838)"><g><path d="M9.20703,38.3769C2.26433,45.3195,2.26433,56.5759,9.20703,63.5184L39.3769,93.6883C46.3195,100.6313,57.5758,100.6313,64.5185,93.6883L87.186,71.021C89.015,69.1917,89.015,66.2257,87.186,64.3964C77.5598,54.7704,62.2921,54.2246,52.0263,62.759L40.2149,50.9476L52.0263,39.1363C62.2921,47.6707,77.5598,47.125,87.186,37.4989C89.015,35.6695,89.015,32.7036,87.186,30.8743L64.5185,8.206949999999999C57.5758,1.26435,46.3195,1.26435,39.3769,8.206949999999999L9.20703,38.3769ZM63.6804,17.4255L59.4902,13.2353C55.3246,9.069749999999999,48.5708,9.069749999999999,44.4052,13.2353L23.4539,34.1866L35.1866,45.9193L63.6804,17.4255ZM68.7087,22.4538L57.0844,34.0781C63.9109,39.3622,73.5066,39.3622,80.333,34.0781L68.7087,22.4538ZM46.9194,67.7087L35.1866,79.4415L14.2353,58.4902C10.06973,54.3245,10.06973,47.5707,14.2353,43.4051L18.4256,39.2149L46.9194,67.7087ZM44.4052,88.6603L40.2149,84.4697L55.26,69.4248C62.1062,62.5786,72.8731,62.0426,80.333,67.8171L59.4902,88.6603C55.3246,92.8253,48.5708,92.8253,44.4052,88.6603Z" fill-rule="evenodd" fill="#5B8DEF" fill-opacity="1"/></g></g></svg>