<svg xmlns="http://www.w3.org/2000/svg" xmlns:xlink="http://www.w3.org/1999/xlink" fill="none" version="1.1" width="376" height="138" viewBox="0 0 376 138"><defs><clipPath id="master_svg0_1910_0135"><rect x="0" y="0" width="376" height="138" rx="0"/></clipPath><clipPath id="master_svg1_1910_0100"><rect x="0" y="22" width="64" height="64" rx="14"/></clipPath><clipPath id="master_svg2_1910_0103"><rect x="18.34000015258789" y="34" width="27.317073822021484" height="40" rx="0"/></clipPath><clipPath id="master_svg3_1910_0083"><rect x="104" y="22" width="64" height="64" rx="14"/></clipPath><clipPath id="master_svg4_1910_0091"><rect x="208" y="22" width="64" height="64" rx="14"/></clipPath><clipPath id="master_svg5_1910_0094"><rect x="208" y="22" width="64" height="64" rx="0"/></clipPath><clipPath id="master_svg6_1910_0119"><rect x="312" y="22" width="64" height="64" rx="14"/></clipPath><clipPath id="master_svg7_1910_0120"><rect x="312" y="22" width="64" height="64" rx="0"/></clipPath><clipPath id="master_svg8_1910_0121"><rect x="321" y="33" width="42" height="43" rx="0"/></clipPath><linearGradient x1="0.7056930065155029" y1="0.47595837712287903" x2="0.3228415548801422" y2="0.8268246054649353" id="master_svg9_1910_0127"><stop offset="10.75889989733696%" stop-color="#FF68CF" stop-opacity="1"/><stop offset="32.261401414871216%" stop-color="#EA61E6" stop-opacity="1"/><stop offset="57.158297300338745%" stop-color="#CC51FF" stop-opacity="1"/><stop offset="100%" stop-color="#7936FF" stop-opacity="1"/></linearGradient><linearGradient x1="0.49999696016311646" y1="-0.09793192893266678" x2="0.49999696016311646" y2="1.0623928308486938" id="master_svga_1910_0124"><stop offset="9.184899926185608%" stop-color="#7C2FFF" stop-opacity="1"/><stop offset="99.60899949073792%" stop-color="#33C9FF" stop-opacity="1"/></linearGradient><linearGradient x1="0.6802732348442078" y1="0.4257710874080658" x2="0.0812617763876915" y2="2.1468652278144873e-7" id="master_svgb_1910_0130"><stop offset="5.01599982380867%" stop-color="#FF68CF" stop-opacity="1"/><stop offset="99.47739839553833%" stop-color="#FF9059" stop-opacity="1"/></linearGradient></defs><g clip-path="url(#master_svg0_1910_0135)"><g clip-path="url(#master_svg1_1910_0100)"><rect x="0" y="22" width="64" height="64" rx="14" fill="#231C23" fill-opacity="1"/><g clip-path="url(#master_svg2_1910_0103)"><g><path d="M45.657008453369144,53.999982988281246Q45.657008453369144,54.163642988281254,45.64880845336914,54.32710298828125Q45.64060845336914,54.49056298828125,45.62420845336914,54.65343298828125Q45.60770845336914,54.81629298828125,45.58310845336914,54.97818298828125Q45.55850845336914,55.14007298828125,45.52580845336914,55.30058298828125Q45.49310845336914,55.46109298828125,45.452408453369145,55.61985298828125Q45.41160845336914,55.77860298828125,45.36300845336914,55.93521298828125Q45.31430845336914,56.09182298828125,45.25780845336914,56.24591298828125Q45.20130845336914,56.40000298828125,45.13720845336914,56.55120298828125Q45.07300845336914,56.70240298828125,45.00140845336914,56.85034298828125Q44.929708453369145,56.99829298828125,44.85060845336914,57.142622988281246Q44.77160845336914,57.28695298828125,44.68540845336914,57.42731298828125Q44.599208453369144,57.56771298828125,44.50610845336914,57.70381298828125Q44.413008453369144,57.83981298828125,44.31310845336914,57.97131298828125Q44.21320845336914,58.10271298828125,44.106908453369144,58.22931298828125Q44.00050845336914,58.35581298828125,43.88790845336914,58.47701298828125Q43.77530845336914,58.59831298828125,43.65680845336914,58.71401298828125Q43.53820845336914,58.82971298828125,43.41400845336914,58.93961298828125Q43.28980845336914,59.04951298828125,43.16020845336914,59.15341298828125Q43.03060845336914,59.25721298828125,42.89600845336914,59.35471298828125Q42.76130845336914,59.45221298828125,42.621908453369144,59.54311298828125Q42.48250845336914,59.63401298828125,42.33870845336914,59.71821298828125Q42.19490845336914,59.80231298828125,42.04710845336914,59.879412988281246Q41.899218453369144,59.95661298828125,41.747668453369144,60.02661298828125Q41.59610845336914,60.09651298828125,41.44122845336914,60.159212988281254Q41.28633845336914,60.22181298828125,41.128488453369144,60.27691298828125Q40.97063845336914,60.33211298828125,40.81020845336914,60.37961298828125Q40.64977845336914,60.42711298828125,40.48715845336914,60.46681298828125Q40.32452845336914,60.50661298828125,40.160098453369145,60.53851298828125Q39.99566845336914,60.57051298828125,39.82983845336914,60.59451298828125Q39.66400845336914,60.61851298828125,39.49715845336914,60.63451298828125Q39.33031845336914,60.65061298828125,39.16287845336914,60.65861298828125Q38.99542845336914,60.66661298828125,38.82777845336914,60.66661298828125Q38.66012845336914,60.66661298828125,38.49267845336914,60.65861298828125Q38.32523845336914,60.65061298828125,38.15838845336914,60.63451298828125Q37.99154845336914,60.61851298828125,37.82571845336914,60.59451298828125Q37.65987845336914,60.57051298828125,37.49544845336914,60.53851298828125Q37.33102845336914,60.50661298828125,37.16839845336914,60.46681298828125Q37.00577845336914,60.42711298828125,36.84534845336914,60.37961298828125Q36.68491845336914,60.33211298828125,36.52706845336914,60.27691298828125Q36.36921845336914,60.22181298828125,36.21432845336914,60.159212988281254Q36.05943845336914,60.09651298828125,35.90788845336914,60.02661298828125Q35.75633845336914,59.95661298828125,35.60847845336914,59.879412988281246Q35.46062845336914,59.80231298828125,35.31682845336914,59.71821298828125Q35.17303845336914,59.63401298828125,35.03363845336914,59.54311298828125Q34.894248453369144,59.45221298828125,34.75958845336914,59.35471298828125Q34.624928453369144,59.25721298828125,34.49533845336914,59.15341298828125Q34.36573845336914,59.04951298828125,34.24151845336914,58.93961298828125Q34.11729845336914,58.82971298828125,33.99875845336914,58.71401298828125Q33.88020845336914,58.59831298828125,33.76761845336914,58.47701298828125Q33.655038453369144,58.35581298828125,33.54867845336914,58.22931298828125Q33.44232845336914,58.10271298828125,33.34245845336914,57.97131298828125Q33.24258845336914,57.83981298828125,33.14944845336914,57.70381298828125Q33.05630845336914,57.56771298828125,32.97011745336914,57.42731298828125Q32.88392945336914,57.28695298828125,32.80489945336914,57.142622988281246Q32.72587045336914,56.99829298828125,32.654191453369144,56.85034298828125Q32.58251245336914,56.70240298828125,32.51835545336914,56.55120298828125Q32.45419945336914,56.40000298828125,32.39771945336914,56.24591298828125Q32.34124045336914,56.09182298828125,32.29257445336914,55.93521298828125Q32.24390845336914,55.77860298828125,32.20317345336914,55.61985298828125Q32.162437453369144,55.46109298828125,32.12973045336914,55.30058298828125Q32.09702415336914,55.14007298828125,32.07242495336914,54.97818298828125Q32.04782575336914,54.81629298828125,32.03139325336914,54.65343298828125Q32.01496075336914,54.49056298828125,32.00673460336914,54.32710298828125Q31.99850845336914,54.163642988281254,31.99850845336914,53.999982988281246Q31.99850845336914,53.83632298828125,32.00673460336914,53.67286298828125Q32.01496075336914,53.50940298828125,32.03139325336914,53.34653298828125Q32.04782575336914,53.18366298828125,32.07242495336914,53.02177298828125Q32.09702415336914,52.85989298828125,32.12973045336914,52.69938298828125Q32.162437453369144,52.53886298828125,32.20317345336914,52.38011298828125Q32.24390845336914,52.22136298828125,32.29257445336914,52.06475298828125Q32.34124045336914,51.90814298828125,32.39771945336914,51.75404298828125Q32.45419945336914,51.59995298828125,32.51835545336914,51.44875298828125Q32.58251245336914,51.297552988281254,32.654191453369144,51.14961298828125Q32.72587045336914,51.001662988281254,32.80489945336914,50.85733298828125Q32.88392945336914,50.71300298828125,32.97011845336914,50.57262298828125Q33.05630845336914,50.43225298828125,33.14944845336914,50.29618298828125Q33.24258845336914,50.16010298828125,33.34245845336914,50.02865298828125Q33.44232845336914,49.89720298828125,33.54867845336914,49.77069298828125Q33.655038453369144,49.64418298828125,33.76761845336914,49.52292298828125Q33.88020845336914,49.40165298828125,33.99875845336914,49.28593298828125Q34.11729845336914,49.17021298828125,34.24151845336914,49.06030298828125Q34.36573845336914,48.95040298828125,34.49533845336914,48.84657298828125Q34.624928453369144,48.742752988281254,34.75958845336914,48.64526298828125Q34.894248453369144,48.54777298828125,35.03363845336914,48.45685298828125Q35.17303845336914,48.36592298828125,35.31682845336914,48.28178898828125Q35.46062845336914,48.19765198828125,35.60847845336914,48.12050498828125Q35.75633845336914,48.04335698828125,35.90788845336914,47.97338398828125Q36.05943845336914,47.90341198828125,36.21432845336914,47.84078298828125Q36.36921845336914,47.77815398828125,36.52706845336914,47.72301898828125Q36.68491845336914,47.66788498828125,36.84534845336914,47.62037698828125Q37.00577845336914,47.57286998828125,37.16839845336914,47.53310498828125Q37.33102845336914,47.49333898828125,37.49544845336914,47.46141098828125Q37.65987845336914,47.42948308828125,37.82571845336914,47.40546958828125Q37.99154845336914,47.38145608828125,38.15838845336914,47.36541478828125Q38.32523845336914,47.34937358828125,38.49267845336914,47.34134327828125Q38.66012845336914,47.33331298828125,38.82777845336914,47.33331298828125Q38.99542845336914,47.33331298828125,39.16287845336914,47.34134327828125Q39.33031845336914,47.34937358828125,39.49715845336914,47.36541478828125Q39.66400845336914,47.38145608828125,39.82983845336914,47.40546958828125Q39.99566845336914,47.42948308828125,40.160098453369145,47.46141098828125Q40.32452845336914,47.49333898828125,40.48715845336914,47.53310498828125Q40.64977845336914,47.57286998828125,40.81020845336914,47.62037698828125Q40.97063845336914,47.66788498828125,41.128488453369144,47.72301898828125Q41.28633845336914,47.77815398828125,41.44122845336914,47.84078298828125Q41.59610845336914,47.90341198828125,41.747668453369144,47.97338398828125Q41.899218453369144,48.04335698828125,42.04710845336914,48.12050498828125Q42.19490845336914,48.19765198828125,42.33870845336914,48.28178898828125Q42.48250845336914,48.36592298828125,42.621908453369144,48.45685298828125Q42.76130845336914,48.54777298828125,42.89600845336914,48.64526298828125Q43.03060845336914,48.742752988281254,43.16020845336914,48.84657298828125Q43.28980845336914,48.95040298828125,43.41400845336914,49.06030298828125Q43.53820845336914,49.17021298828125,43.65680845336914,49.28593298828125Q43.77530845336914,49.40165298828125,43.88790845336914,49.52292298828125Q44.00050845336914,49.64418298828125,44.106908453369144,49.77069298828125Q44.21320845336914,49.89720298828125,44.31310845336914,50.02865298828125Q44.413008453369144,50.16010298828125,44.50610845336914,50.29618298828125Q44.599208453369144,50.43225298828125,44.68540845336914,50.57263298828125Q44.77160845336914,50.71300298828125,44.85060845336914,50.85733298828125Q44.929708453369145,51.001662988281254,45.00140845336914,51.14961298828125Q45.07300845336914,51.297552988281254,45.13720845336914,51.44875298828125Q45.20130845336914,51.59995298828125,45.25780845336914,51.75404298828125Q45.31430845336914,51.90814298828125,45.36300845336914,52.06475298828125Q45.41160845336914,52.22136298828125,45.452408453369145,52.38011298828125Q45.49310845336914,52.53886298828125,45.52580845336914,52.69938298828125Q45.55850845336914,52.85989298828125,45.58310845336914,53.02177298828125Q45.60770845336914,53.18366298828125,45.62420845336914,53.34653298828125Q45.64060845336914,53.50940298828125,45.64880845336914,53.67286298828125Q45.657008453369144,53.83632298828125,45.657008453369144,53.999982988281246Z" fill="#1ABCFE" fill-opacity="1"/></g><g><path d="M18.34000015258794,67.33335701171875C18.33999970296589,63.65145701171875,21.39757015258789,60.66668701171875,25.16927015258789,60.66668701171875L31.99850015258789,60.66668701171875L31.99850015258789,67.33335701171875C31.99850015258789,71.01528701171875,28.94100015258789,73.99998701171874,25.16927015258789,73.99998701171874C21.39757015258789,73.99998701171874,18.34000015258794,71.01528701171875,18.34000015258794,67.33335701171875Z" fill="#0ACF83" fill-opacity="1"/></g><g><path d="M31.99850845336914,34L31.99850845336914,47.3333L38.82777845336914,47.3333C42.59950845336914,47.3333,45.657008453369144,44.3486,45.657008453369144,40.666669999999996C45.657008453369144,36.98477,42.59950845336914,34,38.82777845336914,34L31.99850845336914,34Z" fill="#FF7262" fill-opacity="1"/></g><g><path d="M18.34000015258789,40.666669999999996C18.34000015258789,44.3486,21.39757015258789,47.3333,25.16927015258789,47.3333L31.99850015258789,47.3333L31.99850015258789,34L25.16927015258789,34C21.39757015258789,33.999999561083,18.34000015258789,36.98477,18.34000015258789,40.666669999999996Z" fill="#F24E1E" fill-opacity="1"/></g><g><path d="M18.34000015258789,53.999982988281246C18.34000015258789,57.68191298828125,21.39757015258789,60.66661298828125,25.16927015258789,60.66661298828125L31.99850015258789,60.66661298828125L31.99850015258789,47.33331298828125L25.16927015258789,47.33331298828125C21.39757015258789,47.33331164979125,18.34000015258789,50.31808298828125,18.34000015258789,53.999982988281246Z" fill="#A259FF" fill-opacity="1"/></g></g></g><g clip-path="url(#master_svg3_1910_0083)"><rect x="104" y="22" width="64" height="64" rx="14" fill="#FFFFFF" fill-opacity="1"/><g><g><g><g><g><path d="M113.352081,64.76840544342008L125.6518,40.68846544342008C126.7809,38.47796144342008,129.8945,38.42762444342007,131.0931,40.60048544342008L144.3253,64.58720544342007C145.6642,67.01430544342007,143.4251,69.86290544342008,140.7789,69.09890544342008L129.8797,65.95190544342007C129.325,65.79170544342007,128.737,65.79170544342007,128.1824,65.95170544342008L116.94423,69.19250544342007C114.3439,69.94230544342008,112.112836,67.19470544342008,113.352081,64.76840544342008Z" fill="#3970E3" fill-opacity="1"/></g></g><g style="opacity:0.5;"><g><path d="M149.97370245666505,67.63159999999999L155.05400245666505,69.0986C157.70010245666504,69.8626,159.93930245666505,67.014,158.60040245666505,64.5869L145.36818245666504,40.60018C144.16952245666505,38.427319,141.05593245666503,38.477656,139.92685245666505,40.68816L137.74900245666504,44.95187L149.97370245666505,67.63159999999999Z" fill="#3970E3" fill-opacity="1"/></g></g></g></g></g></g><g clip-path="url(#master_svg4_1910_0091)"><rect x="208" y="22" width="64" height="64" rx="14" fill="#273347" fill-opacity="1"/><g clip-path="url(#master_svg5_1910_0094)"><g><g><g><g><g><path d="M246.71074851989746,32.66939826965332L259.31074851989746,56.34939826965332C259.7307485198975,57.14939826965332,259.7307485198975,58.10939826965332,259.31074851989746,58.90939826965332L251.33074851989747,73.90939826965332C250.85074851989745,74.78939826965332,249.93074851989746,75.34939826965332,248.91074851989745,75.34939826965332L231.09074851989746,75.34939826965332C230.07074851989745,75.34939826965332,229.15074851989746,74.78939826965332,228.67074851989747,73.90939826965332L220.69074851989745,58.90939826965332C220.27074851989747,58.10939826965332,220.27074851989747,57.14939826965332,220.69074851989745,56.34939826965332L233.29074851989745,32.66939826965332C233.77074851989747,31.78939826965332,234.87074851989746,31.44939826965332,235.75074851989746,31.92939826965332C236.07074851989745,32.08939826965332,236.33074851989747,32.34939826965332,236.49074851989747,32.66939826965332L239.99074851989747,39.24939826965332L243.51074851989745,32.66939826965332C243.97074851989746,31.78939826965332,245.07074851989745,31.44939826965332,245.95074851989745,31.92939826965332C246.27074851989747,32.08939826965332,246.53074851989746,32.34939826965332,246.71074851989746,32.66939826965332ZM245.11794851989745,48.87869826965332L242.53794851989747,53.71859826965332L243.59794851989747,55.69859826965332C243.91794851989746,56.298598269653326,244.07794851989746,56.95859826965332,244.07794851989746,57.61859826965332L244.09794851989747,57.61859826965332L244.09794851989747,57.69859826965332C244.05794851989745,59.93859826965332,242.23794851989746,61.71859826965332,239.99784851989745,61.71859826965332C237.73784851989745,61.71859826965332,235.91784851989746,59.89859826965332,235.91784851989746,57.63859826965332L235.91784851989746,57.61859826965332C235.91784851989746,57.35859826965332,235.93784851989747,57.09859826965332,235.99784851989747,56.81859826965332L235.99784851989747,56.75859826965332C236.09784851989747,56.33859826965332,236.23784851989745,55.95859826965332,236.43784851989747,55.61859826965332L236.43784851989747,55.59859826965332L239.99784851989745,48.91869826965332L239.99784851989745,48.938698269653315L242.57794851989746,44.09869826965332L244.29794851989746,40.83865826965332C244.39794851989745,40.67865826965332,244.51794851989746,40.55865826965332,244.67794851989746,40.45865826965332C245.11794851989745,40.23865826965332,245.67794851989746,40.398658269653325,245.89794851989745,40.83865826965332L254.49794851989748,56.97859826965332C254.71794851989745,57.378598269653324,254.71794851989745,57.85859826965332,254.49794851989748,58.25859826965332L248.19794851989747,70.07859826965333C247.95794851989746,70.51859826965332,247.49794851989745,70.79859826965333,246.99794851989745,70.79859826965333L232.99784851989747,70.79859826965333C232.49784851989747,70.79859826965333,232.03784851989747,70.51859826965332,231.79784851989746,70.07859826965333L225.49786851989745,58.25859826965332C225.27786851989745,57.85859826965332,225.27786851989745,57.378598269653324,225.49786851989745,56.97859826965332L234.09784851989747,40.83865826965332C234.17784851989745,40.67865826965332,234.29784851989746,40.55865826965332,234.45784851989745,40.45865826965332C234.91784851989746,40.23865826965332,235.45784851989745,40.398658269653325,235.69784851989746,40.83865826965332L237.41784851989746,44.09869826965332L232.37784851989747,53.55859826965332C232.13784851989746,54.018598269653324,231.93784851989747,54.47859826965332,231.79784851989746,54.95859826965332L231.77784851989747,55.018598269653324L231.69784851989746,55.23859826965332C231.47784851989746,55.99859826965332,231.35784851989746,56.798598269653326,231.35784851989746,57.63859826965332C231.35784851989746,62.39859826965332,235.23784851989745,66.27859826965332,239.99784851989745,66.27859826965332C244.77794851989745,66.27859826965332,248.63794851989746,62.39859826965332,248.63794851989746,57.63859826965332C248.63794851989746,56.07859826965332,248.23794851989746,54.61859826965332,247.51794851989746,53.378598269653324L245.11794851989745,48.87869826965332Z" fill-rule="evenodd" fill="#FFFFFF" fill-opacity="1"/></g></g></g></g></g></g></g><g clip-path="url(#master_svg6_1910_0119)"><rect x="312" y="22" width="64" height="64" rx="14" fill="#FFFFFF" fill-opacity="1"/><g clip-path="url(#master_svg7_1910_0120)"><g clip-path="url(#master_svg8_1910_0121)"><g><path d="M340.3366930859375,49.8298L332.8421630859375,41.67107C333.5800500859375,40.20898,334.5742930859375,38.85234,335.8251030859375,37.60148C338.8918930859375,34.53382,342.5981330859375,33,346.9438630859375,33C351.2894630859375,33,354.9957630859375,34.53382,358.0626630859375,37.60148C361.1130630859375,40.652590000000004,362.6382630859375,44.3315,362.6382630859375,48.638400000000004C362.6382630859375,52.9454,361.1130630859375,56.6242,358.0626630859375,59.675399999999996C354.9957630859375,62.742999999999995,351.2894630859375,64.2769,346.9438630859375,64.2769L346.9438630859375,55.3067C348.7566630859375,55.3067,350.3068630859375,54.6627,351.5946630859375,53.374700000000004C352.8988630859375,52.0702,353.55106308593747,50.4914,353.55106308593747,48.638400000000004C353.55106308593747,46.785399999999996,352.8988630859375,45.2067,351.5946630859375,43.902100000000004C350.3068630859375,42.61415,348.7566630859375,41.9701,346.9438630859375,41.9701C345.1311630859375,41.9701,343.5807630859375,42.61415,342.2931130859375,43.902100000000004C340.9888730859375,45.2067,340.3366930859375,46.785399999999996,340.3366930859375,48.638400000000004L340.3366930859375,49.8298Z" fill-rule="evenodd" fill="url(#master_svg9_1910_0127)" fill-opacity="1"/></g><g><path d="M331.2493896484375,56.275115966796875L331.2493896484375,74.69711596679687L331.9384916484375,74.69711596679687C336.5767196484375,74.69711596679687,340.3367696484375,70.98551596679687,340.3367696484375,66.40721596679687L340.3367696484375,63.946965966796874C339.1490896484375,63.44021596679688,337.9259696484375,62.657745966796874,336.6672896484375,61.599815966796875C334.4246196484375,59.71446596679687,332.6185996484375,57.939735966796874,331.2493896484375,56.275115966796875Z" fill-rule="evenodd" fill="url(#master_svga_1910_0124)" fill-opacity="1"/></g><g><path d="M322.56209,42.16892212890625L321,43.56897212890625L333.7663,57.44703212890625L335.7568,59.61583212890625L335.8251,59.68393212890625C338.892,62.75153212890625,342.5982,64.28553212890625,346.9438,64.28553212890625C351.2895,64.28553212890625,354.99580000000003,62.75153212890625,358.0628,59.68393212890625C361.1132,56.63283212890625,362.6383,52.953932128906246,362.6383,48.64704212890625L353.5511,48.64704212890625C353.5511,50.49993212890625,352.8989,52.07873212890625,351.5946,53.383132128906254C350.3069,54.67133212890625,348.7566,55.31533212890625,346.9438,55.31533212890625C345.1595,55.31533212890625,343.6295,54.69143212890625,342.3537,53.443232128906246L336.2556,46.79882212890625L336.2502,46.80364212890625L332.4182,42.63783212890625C329.82769,39.82181112890625,325.41491,39.61185412890625,322.56209,42.16892212890625Z" fill-rule="evenodd" fill="url(#master_svgb_1910_0130)" fill-opacity="1"/></g></g></g></g><g><path d="M16.212,114L17.316,114L17.316,110.05199999999999L20.676000000000002,110.05199999999999L20.676000000000002,109.116L17.316,109.116L17.316,106.14L21.276,106.14L21.276,105.204L16.212,105.204L16.212,114ZM22.728,114L23.832,114L23.832,107.484L22.728,107.484L22.728,114ZM23.28,106.14C23.712,106.14,24.012,105.852,24.012,105.408C24.012,104.988,23.712,104.7,23.28,104.7C22.848,104.7,22.56,104.988,22.56,105.408C22.56,105.852,22.848,106.14,23.28,106.14ZM28.224,117C30.240000000000002,117,31.524,115.956,31.524,114.744C31.524,113.664,30.756,113.196,29.256,113.196L27.972,113.196C27.096,113.196,26.832,112.896,26.832,112.488C26.832,112.128,27.012,111.912,27.252000000000002,111.708C27.54,111.852,27.9,111.936,28.212,111.936C29.555999999999997,111.936,30.6,111.06,30.6,109.668C30.6,109.104,30.384,108.624,30.072,108.324L31.404,108.324L31.404,107.484L29.136,107.484C28.908,107.388,28.584,107.316,28.212,107.316C26.904,107.316,25.776,108.216,25.776,109.644C25.776,110.424,26.195999999999998,111.06,26.628,111.396L26.628,111.444C26.28,111.684,25.908,112.116,25.908,112.656C25.908,113.172,26.16,113.52,26.496000000000002,113.724L26.496000000000002,113.784C25.884,114.156,25.536,114.696,25.536,115.26C25.536,116.376,26.64,117,28.224,117ZM28.212,111.19200000000001C27.468,111.19200000000001,26.832,110.592,26.832,109.644C26.832,108.684,27.456,108.12,28.212,108.12C28.992,108.12,29.604,108.684,29.604,109.644C29.604,110.592,28.968,111.19200000000001,28.212,111.19200000000001ZM28.380000000000003,116.244C27.192,116.244,26.496000000000002,115.8,26.496000000000002,115.104C26.496000000000002,114.732,26.688000000000002,114.336,27.156,114C27.444000000000003,114.072,27.756,114.096,27.996000000000002,114.096L29.124000000000002,114.096C29.988,114.096,30.444000000000003,114.312,30.444000000000003,114.924C30.444000000000003,115.596,29.64,116.244,28.380000000000003,116.244ZM32.796,114L33.9,114L33.9,109.272C34.488,108.6,35.04,108.276,35.532,108.276C36.36,108.276,36.744,108.792,36.744,110.016L36.744,114L37.836,114L37.836,109.272C38.448,108.6,38.976,108.276,39.480000000000004,108.276C40.308,108.276,40.692,108.792,40.692,110.016L40.692,114L41.784,114L41.784,109.872C41.784,108.216,41.147999999999996,107.316,39.816,107.316C39.012,107.316,38.34,107.832,37.656,108.564C37.391999999999996,107.796,36.864000000000004,107.316,35.856,107.316C35.076,107.316,34.403999999999996,107.80799999999999,33.828,108.432L33.804,108.432L33.696,107.484L32.796,107.484L32.796,114ZM45.408,114.156C46.212,114.156,46.944,113.736,47.568,113.22L47.604,113.22L47.7,114L48.6,114L48.6,109.992C48.6,108.372,47.94,107.316,46.344,107.316C45.288,107.316,44.376000000000005,107.784,43.788,108.168L44.208,108.924C44.724000000000004,108.576,45.408,108.228,46.164,108.228C47.232,108.228,47.508,109.032,47.508,109.872C44.736000000000004,110.184,43.512,110.892,43.512,112.30799999999999C43.512,113.484,44.316,114.156,45.408,114.156ZM45.72,113.268C45.072,113.268,44.568,112.98,44.568,112.236C44.568,111.396,45.312,110.856,47.508,110.604L47.508,112.416C46.872,112.98,46.344,113.268,45.72,113.268Z" fill="#888" fill-opacity="1"/></g><g><path d="M110.212,114L111.208,114L111.208,109.128C111.208,108.372,111.136,107.304,111.064,106.536L111.112,106.536L111.82,108.53999999999999L113.488,113.112L114.232,113.112L115.888,108.53999999999999L116.596,106.536L116.644,106.536C116.584,107.304,116.5,108.372,116.5,109.128L116.5,114L117.532,114L117.532,105.204L116.2,105.204L114.52,109.908C114.316,110.508,114.136,111.132,113.908,111.744L113.86,111.744C113.644,111.132,113.452,110.508,113.224,109.908L111.544,105.204L110.212,105.204L110.212,114ZM121.348,114.156C122.152,114.156,122.884,113.736,123.508,113.22L123.544,113.22L123.64,114L124.53999999999999,114L124.53999999999999,109.992C124.53999999999999,108.372,123.88,107.316,122.284,107.316C121.228,107.316,120.316,107.784,119.728,108.168L120.148,108.924C120.664,108.576,121.348,108.228,122.104,108.228C123.172,108.228,123.44800000000001,109.032,123.44800000000001,109.872C120.676,110.184,119.452,110.892,119.452,112.30799999999999C119.452,113.484,120.256,114.156,121.348,114.156ZM121.66,113.268C121.012,113.268,120.508,112.98,120.508,112.236C120.508,111.396,121.252,110.856,123.44800000000001,110.604L123.44800000000001,112.416C122.812,112.98,122.284,113.268,121.66,113.268ZM128.308,114.156C129.844,114.156,130.672,113.28,130.672,112.224C130.672,110.988,129.64,110.604,128.692,110.244C127.96000000000001,109.968,127.288,109.728,127.288,109.116C127.288,108.6,127.672,108.168,128.5,108.168C129.076,108.168,129.532,108.42,129.976,108.744L130.504,108.06C130.012,107.652,129.292,107.316,128.488,107.316C127.06,107.316,126.244,108.132,126.244,109.164C126.244,110.28,127.22800000000001,110.712,128.14,111.048C128.86,111.312,129.628,111.624,129.628,112.284C129.628,112.848,129.208,113.304,128.344,113.304C127.564,113.304,126.988,112.992,126.412,112.524L125.884,113.256C126.496,113.772,127.384,114.156,128.308,114.156ZM133.996,114.156C134.404,114.156,134.836,114.036,135.208,113.916L134.992,113.088C134.776,113.184,134.488,113.268,134.248,113.268C133.492,113.268,133.24,112.812,133.24,112.02L133.24,108.372L135.016,108.372L135.016,107.484L133.24,107.484L133.24,105.648L132.328,105.648L132.208,107.484L131.176,107.544L131.176,108.372L132.148,108.372L132.148,111.984C132.148,113.292,132.61599999999999,114.156,133.996,114.156ZM138.94,114.156C139.816,114.156,140.512,113.868,141.076,113.496L140.692,112.764C140.2,113.088,139.696,113.28,139.06,113.28C137.824,113.28,136.972,112.392,136.9,111L141.292,111C141.316,110.832,141.34,110.616,141.34,110.376C141.34,108.516,140.404,107.316,138.736,107.316C137.248,107.316,135.82,108.624,135.82,110.748C135.82,112.896,137.2,114.156,138.94,114.156ZM136.888,110.22C137.02,108.924,137.836,108.19200000000001,138.76,108.19200000000001C139.78,108.19200000000001,140.38,108.9,140.38,110.22L136.888,110.22ZM142.948,114L144.052,114L144.052,109.812C144.484,108.708,145.144,108.3,145.684,108.3C145.96,108.3,146.10399999999998,108.336,146.32,108.408L146.524,107.46C146.32,107.352,146.11599999999999,107.316,145.828,107.316C145.108,107.316,144.436,107.844,143.98,108.672L143.95600000000002,108.672L143.848,107.484L142.948,107.484L142.948,114ZM151.168,114.156C152.344,114.156,153.316,113.724,153.88,113.136L153.88,109.44L150.988,109.44L150.988,110.364L152.86,110.364L152.86,112.668C152.512,112.992,151.9,113.184,151.276,113.184C149.392,113.184,148.336,111.792,148.336,109.572C148.336,107.376,149.488,106.02,151.264,106.02C152.14,106.02,152.716,106.392,153.16,106.848L153.76,106.128C153.256,105.6,152.452,105.048,151.228,105.048C148.9,105.048,147.196,106.764,147.196,109.608C147.196,112.464,148.852,114.156,151.168,114.156ZM158.404,114.156C160,114.156,161.416,112.908,161.416,110.748C161.416,108.576,160,107.316,158.404,107.316C156.808,107.316,155.392,108.576,155.392,110.748C155.392,112.908,156.808,114.156,158.404,114.156ZM158.404,113.244C157.276,113.244,156.52,112.248,156.52,110.748C156.52,109.248,157.276,108.24,158.404,108.24C159.53199999999998,108.24,160.3,109.248,160.3,110.748C160.3,112.248,159.53199999999998,113.244,158.404,113.244Z" fill="#888" fill-opacity="1"/></g><g><path d="M215.844,114.156C217.56,114.156,218.268,112.944,218.268,111.42L218.268,105.204L217.152,105.204L217.152,111.312C217.152,112.644,216.684,113.184,215.736,113.184C215.1,113.184,214.608,112.896,214.212,112.188L213.42,112.764C213.936,113.676,214.728,114.156,215.844,114.156ZM223.068,114.156C224.904,114.156,226.056,113.05199999999999,226.056,111.66C226.056,110.352,225.264,109.752,224.244,109.30799999999999L222.996,108.768C222.312,108.48,221.532,108.156,221.532,107.292C221.532,106.512,222.18,106.02,223.176,106.02C223.992,106.02,224.64,106.332,225.18,106.836L225.756,106.128C225.144,105.492,224.22,105.048,223.176,105.048C221.58,105.048,220.404,106.02,220.404,107.376C220.404,108.66,221.376,109.284,222.192,109.632L223.452,110.184C224.292,110.556,224.928,110.844,224.928,111.756C224.928,112.608,224.244,113.184,223.08,113.184C222.168,113.184,221.28,112.752,220.656,112.092L219.996,112.86C220.752,113.652,221.82,114.156,223.068,114.156ZM227.304,111.06L230.376,111.06L230.376,110.22L227.304,110.22L227.304,111.06ZM232.128,114L234.372,114C237.024,114,238.464,112.356,238.464,109.572C238.464,106.764,237.024,105.204,234.324,105.204L232.128,105.204L232.128,114ZM233.232,113.088L233.232,106.104L234.228,106.104C236.304,106.104,237.324,107.34,237.324,109.572C237.324,111.792,236.304,113.088,234.228,113.088L233.232,113.088ZM242.916,114.156C243.792,114.156,244.488,113.868,245.052,113.496L244.668,112.764C244.176,113.088,243.672,113.28,243.036,113.28C241.8,113.28,240.948,112.392,240.876,111L245.268,111C245.292,110.832,245.316,110.616,245.316,110.376C245.316,108.516,244.38,107.316,242.712,107.316C241.224,107.316,239.796,108.624,239.796,110.748C239.796,112.896,241.176,114.156,242.916,114.156ZM240.864,110.22C240.996,108.924,241.812,108.19200000000001,242.736,108.19200000000001C243.756,108.19200000000001,244.356,108.9,244.356,110.22L240.864,110.22ZM248.628,114.156C250.164,114.156,250.992,113.28,250.992,112.224C250.992,110.988,249.96,110.604,249.012,110.244C248.28,109.968,247.608,109.728,247.608,109.116C247.608,108.6,247.992,108.168,248.82,108.168C249.39600000000002,108.168,249.852,108.42,250.296,108.744L250.824,108.06C250.332,107.652,249.612,107.316,248.808,107.316C247.38,107.316,246.564,108.132,246.564,109.164C246.564,110.28,247.548,110.712,248.46,111.048C249.18,111.312,249.948,111.624,249.948,112.284C249.948,112.848,249.528,113.304,248.664,113.304C247.88400000000001,113.304,247.308,112.992,246.732,112.524L246.204,113.256C246.816,113.772,247.704,114.156,248.628,114.156ZM252.54,114L253.644,114L253.644,107.484L252.54,107.484L252.54,114ZM253.09199999999998,106.14C253.524,106.14,253.824,105.852,253.824,105.408C253.824,104.988,253.524,104.7,253.09199999999998,104.7C252.66,104.7,252.372,104.988,252.372,105.408C252.372,105.852,252.66,106.14,253.09199999999998,106.14ZM258.036,117C260.052,117,261.336,115.956,261.336,114.744C261.336,113.664,260.568,113.196,259.068,113.196L257.784,113.196C256.908,113.196,256.644,112.896,256.644,112.488C256.644,112.128,256.824,111.912,257.064,111.708C257.352,111.852,257.712,111.936,258.024,111.936C259.368,111.936,260.412,111.06,260.412,109.668C260.412,109.104,260.196,108.624,259.884,108.324L261.216,108.324L261.216,107.484L258.948,107.484C258.72,107.388,258.396,107.316,258.024,107.316C256.716,107.316,255.588,108.216,255.588,109.644C255.588,110.424,256.008,111.06,256.44,111.396L256.44,111.444C256.092,111.684,255.72,112.116,255.72,112.656C255.72,113.172,255.972,113.52,256.308,113.724L256.308,113.784C255.696,114.156,255.348,114.696,255.348,115.26C255.348,116.376,256.452,117,258.036,117ZM258.024,111.19200000000001C257.28,111.19200000000001,256.644,110.592,256.644,109.644C256.644,108.684,257.26800000000003,108.12,258.024,108.12C258.804,108.12,259.416,108.684,259.416,109.644C259.416,110.592,258.78,111.19200000000001,258.024,111.19200000000001ZM258.192,116.244C257.004,116.244,256.308,115.8,256.308,115.104C256.308,114.732,256.5,114.336,256.968,114C257.256,114.072,257.568,114.096,257.808,114.096L258.936,114.096C259.8,114.096,260.256,114.312,260.256,114.924C260.256,115.596,259.452,116.244,258.192,116.244ZM262.608,114L263.712,114L263.712,109.272C264.36,108.612,264.81600000000003,108.276,265.488,108.276C266.352,108.276,266.724,108.792,266.724,110.016L266.724,114L267.81600000000003,114L267.81600000000003,109.872C267.81600000000003,108.216,267.192,107.316,265.824,107.316C264.936,107.316,264.252,107.80799999999999,263.64,108.432L263.616,108.432L263.508,107.484L262.608,107.484L262.608,114Z" fill="#888" fill-opacity="1"/></g><g><path d="M330.212,114L331.316,114L331.316,110.496L332.768,110.496C334.7,110.496,336.008,109.644,336.008,107.784C336.008,105.864,334.688,105.204,332.72,105.204L330.212,105.204L330.212,114ZM331.316,109.596L331.316,106.104L332.576,106.104C334.124,106.104,334.904,106.5,334.904,107.784C334.904,109.044,334.172,109.596,332.624,109.596L331.316,109.596ZM337.7,114L338.804,114L338.804,107.484L337.7,107.484L337.7,114ZM338.252,106.14C338.684,106.14,338.984,105.852,338.984,105.408C338.984,104.988,338.684,104.7,338.252,104.7C337.82,104.7,337.532,104.988,337.532,105.408C337.532,105.852,337.82,106.14,338.252,106.14ZM340.076,114L341.228,114L342.104,112.476C342.332,112.08,342.536,111.684,342.764,111.312L342.824,111.312C343.076,111.684,343.316,112.08,343.532,112.476L344.492,114L345.692,114L343.544,110.712L345.524,107.484L344.384,107.484L343.58,108.912C343.376,109.284,343.196,109.632,343.004,110.004L342.944,110.004C342.728,109.632,342.5,109.284,342.308,108.912L341.432,107.484L340.244,107.484L342.224,110.604L340.076,114ZM348.68,114.156C350.216,114.156,351.044,113.28,351.044,112.224C351.044,110.988,350.012,110.604,349.064,110.244C348.332,109.968,347.66,109.728,347.66,109.116C347.66,108.6,348.044,108.168,348.872,108.168C349.448,108.168,349.904,108.42,350.348,108.744L350.876,108.06C350.384,107.652,349.664,107.316,348.86,107.316C347.432,107.316,346.616,108.132,346.616,109.164C346.616,110.28,347.6,110.712,348.512,111.048C349.23199999999997,111.312,350,111.624,350,112.284C350,112.848,349.58,113.304,348.716,113.304C347.936,113.304,347.36,112.992,346.784,112.524L346.256,113.256C346.868,113.772,347.756,114.156,348.68,114.156ZM355.124,114.156C356.72,114.156,358.136,112.908,358.136,110.748C358.136,108.576,356.72,107.316,355.124,107.316C353.528,107.316,352.112,108.576,352.112,110.748C352.112,112.908,353.528,114.156,355.124,114.156ZM355.124,113.244C353.996,113.244,353.24,112.248,353.24,110.748C353.24,109.248,353.996,108.24,355.124,108.24C356.252,108.24,357.02,109.248,357.02,110.748C357.02,112.248,356.252,113.244,355.124,113.244Z" fill="#888" fill-opacity="1"/></g></g></svg>